<svg xmlns="http://www.w3.org/2000/svg" width="800" height="450" viewBox="0 0 800 450" fill="none">
  <rect width="800" height="450" fill="#F0FDFA"/>
  <rect x="130" y="200" width="140" height="100" rx="6" fill="#0369A1" fill-opacity="0.15" stroke="#0369A1" stroke-width="2"/>
  <rect x="150" y="220" width="100" height="12" rx="2" fill="#0369A1" fill-opacity="0.35"/>
  <rect x="150" y="245" width="70" height="10" rx="2" fill="#134E4A" fill-opacity="0.2"/>
  <rect x="330" y="200" width="140" height="100" rx="6" fill="#0F766E" fill-opacity="0.15" stroke="#0F766E" stroke-width="2"/>
  <rect x="350" y="220" width="100" height="12" rx="2" fill="#0F766E" fill-opacity="0.35"/>
  <rect x="350" y="245" width="70" height="10" rx="2" fill="#134E4A" fill-opacity="0.2"/>
  <rect x="530" y="200" width="140" height="100" rx="6" fill="#14B8A6" fill-opacity="0.15" stroke="#14B8A6" stroke-width="2"/>
  <rect x="550" y="220" width="100" height="12" rx="2" fill="#14B8A6" fill-opacity="0.4"/>
  <rect x="550" y="245" width="70" height="10" rx="2" fill="#134E4A" fill-opacity="0.2"/>
  <path d="M270 250 H330 M470 250 H530 M400 120 V200" stroke="#0F766E" stroke-width="2.5" stroke-linecap="round"/>
  <path d="M400 80 L400 50 M380 70 L400 50 L420 70" stroke="#0369A1" stroke-width="3" stroke-linecap="round" stroke-linejoin="round"/>
  <rect x="360" y="95" width="80" height="28" rx="6" fill="#0369A1" fill-opacity="0.25"/>
  <circle cx="400" cy="250" r="24" fill="#0369A1" fill-opacity="0.2" stroke="#0369A1" stroke-width="2"/>
  <path d="M392 250 L398 256 L412 242" stroke="#0F766E" stroke-width="2.5" stroke-linecap="round" stroke-linejoin="round"/>
</svg>
