<svg xmlns="http://www.w3.org/2000/svg" width="800" height="450" viewBox="0 0 800 450" fill="none">
  <rect width="800" height="450" fill="#F0FDFA"/>
  <rect x="80" y="140" width="200" height="160" rx="12" fill="#0F766E" fill-opacity="0.15" stroke="#0F766E" stroke-width="2.5"/>
  <rect x="120" y="180" width="120" height="12" rx="3" fill="#0F766E" fill-opacity="0.5"/>
  <rect x="120" y="210" width="90" height="10" rx="2" fill="#134E4A" fill-opacity="0.25"/>
  <path d="M360 220 L420 220 M390 200 L390 240" stroke="#0369A1" stroke-width="3" stroke-linecap="round"/>
  <polygon points="440,120 520,120 540,200 520,280 440,280 420,200" fill="#0369A1" fill-opacity="0.12" stroke="#0369A1" stroke-width="2.5"/>
  <circle cx="480" cy="200" r="28" fill="#0369A1" fill-opacity="0.35"/>
  <path d="M560 140 L720 140 L720 300 L560 300 Z" fill="#14B8A6" fill-opacity="0.12" stroke="#14B8A6" stroke-width="2.5"/>
  <rect x="580" y="170" width="120" height="8" rx="2" fill="#0F766E" fill-opacity="0.4"/>
  <rect x="580" y="195" width="90" height="8" rx="2" fill="#134E4A" fill-opacity="0.2"/>
  <rect x="580" y="230" width="100" height="50" rx="4" fill="#0369A1" fill-opacity="0.2"/>
</svg>
